<svg width="500" height="500" viewBox="0 0 500 500" fill="none" xmlns="http://www.w3.org/2000/svg">
<rect width="500" height="500" rx="250" fill="#0085FF"/>
<path d="M201.033 313H163.582V179.529H201.033V313ZM101.428 313H63.9763V179.529H101.428V313ZM182.905 262.799H73.7376V229.132H182.905V262.799ZM283.277 353H208.573V338.896C208.573 334.354 209.33 330.489 210.844 327.302C212.358 324.035 214.828 321.246 218.254 318.935C221.76 316.624 226.382 314.552 232.119 312.72L253.873 305.787C255.626 305.229 257.021 304.672 258.057 304.114C259.092 303.476 259.849 302.759 260.328 301.962C260.806 301.086 261.045 300.05 261.045 298.855C261.045 297.5 260.726 296.345 260.089 295.388C259.531 294.352 258.256 293.556 256.264 292.998C254.351 292.44 251.363 292.161 247.299 292.161C242.837 292.161 239.41 292.56 237.02 293.356C234.709 294.074 233.115 295.229 232.239 296.823C231.362 298.337 230.924 300.329 230.924 302.799V304.353H208.931V302.56C208.931 297.141 210.246 292.121 212.876 287.5C215.505 282.798 219.689 279.013 225.426 276.145C231.163 273.196 238.733 271.722 248.136 271.722C256.582 271.722 263.395 272.878 268.575 275.188C273.754 277.499 277.539 280.726 279.93 284.87C282.32 288.934 283.516 293.715 283.516 299.213C283.516 304.233 282.48 308.417 280.408 311.763C278.336 315.11 275.468 317.859 271.802 320.011C268.137 322.083 263.913 323.716 259.132 324.911L241.203 329.334C239.45 329.732 237.896 330.17 236.542 330.649C235.187 331.047 234.111 331.645 233.315 332.441C232.597 333.159 232.239 334.195 232.239 335.549L254.71 332.8H283.277V353Z" fill="white"/>
<path d="M359.891 314.992C344.486 314.992 331.205 312.203 320.049 306.625C309.026 300.915 300.593 292.946 294.749 282.72C288.906 272.361 285.984 260.209 285.984 246.264C285.984 232.32 288.906 220.234 294.749 210.008C300.593 199.649 309.026 191.681 320.049 186.103C331.205 180.392 344.486 177.537 359.891 177.537C375.828 177.537 389.308 180.392 400.331 186.103C411.487 191.681 419.987 199.649 425.83 210.008C431.674 220.234 434.595 232.32 434.595 246.264C434.595 260.209 431.674 272.361 425.83 282.72C419.987 292.946 411.487 300.915 400.331 306.625C389.308 312.203 375.828 314.992 359.891 314.992ZM359.891 279.134C368.922 279.134 375.961 278.271 381.008 276.544C386.054 274.685 389.574 271.365 391.566 266.584C393.691 261.803 394.753 255.03 394.753 246.264C394.753 237.366 393.691 230.593 391.566 225.945C389.574 221.164 386.054 217.91 381.008 216.184C375.961 214.324 368.922 213.395 359.891 213.395C350.86 213.395 343.888 214.324 338.974 216.184C334.06 217.91 330.607 221.164 328.615 225.945C326.756 230.593 325.826 237.366 325.826 246.264C325.826 255.03 326.756 261.803 328.615 266.584C330.607 271.365 334.06 274.685 338.974 276.544C343.888 278.271 350.86 279.134 359.891 279.134Z" fill="white"/>
</svg>
