<svg width="247" height="247" viewBox="0 0 247 247" fill="none" xmlns="http://www.w3.org/2000/svg">
<path d="M204.743 148.509C204.743 148.509 190.305 129.103 147.944 141.644C105.583 154.188 93.0389 171.702 62.0361 171.702C62.0361 171.702 82.8622 181.88 119.307 161.999C155.753 142.117 185.103 141.172 204.743 148.509Z" fill="#C38A41"/>
<path d="M0 137.228C0 137.228 4.49608 161.605 64.6102 145.986C124.721 130.364 142.943 122.318 172.29 124.212C201.637 126.106 209.21 144.564 209.21 144.564C209.21 144.564 193.825 120.331 127.561 141.203C61.2955 162.079 5.44339 166.694 0 137.228Z" fill="#C38A41"/>
<path d="M93.0678 155.867C93.0678 155.867 53.4857 169.71 19.9385 161.014C19.9385 161.014 38.7527 172.906 64.6666 167.048C90.5828 161.191 93.0678 155.867 93.0678 155.867Z" fill="#E9E9E9"/>
<path d="M122.401 170.708C122.401 170.708 159.739 151.622 194.156 155.688C194.156 155.688 173.905 146.457 149.022 155.776C124.142 165.094 122.401 170.708 122.401 170.708Z" fill="#E9E9E9"/>
<path d="M42.1264 118.545C44.8949 115.941 48.681 115.776 51.8539 114.144C53.1532 113.457 54.6683 112.51 55.2597 111.683C54.4072 112.18 53.1756 112.607 52.3731 112.914C49.9597 113.813 46.5992 114.64 43.9254 115.705C40.8506 116.936 39.9987 118.19 39.2645 119.207C38.6007 118.923 38.1063 119.018 37.5125 119.374C37.4896 119.348 37.2544 118.923 37.1574 118.757C34.9104 114.545 24.4533 109.436 20.2168 107.401C25.0424 111.21 28.8544 113.15 33.6335 117.812C36.543 120.649 35.1714 122.472 31.6916 122.283C34.0109 124.13 36.8752 124.65 39.7606 121.929C40.4697 121.929 41.7507 121.929 41.7507 121.929L40.3292 120.461C40.7801 119.94 41.4427 119.231 42.1505 118.568L42.1264 118.545Z" fill="#E9E9E9"/>
<path d="M61.2509 97.1682C63.2651 95.274 66.0177 95.1546 68.3258 93.9671C69.2723 93.4691 70.3741 92.7789 70.8044 92.1769C70.1854 92.5379 69.2894 92.8489 68.7056 93.0717C66.9495 93.726 64.5044 94.3275 62.5584 95.1029C60.322 95.9971 59.7024 96.9113 59.1679 97.6497C58.6847 97.444 58.3255 97.5127 57.8939 97.7714C57.8757 97.7544 57.7052 97.444 57.6353 97.3223C55.9997 94.2599 48.3928 90.5419 45.3115 89.0604C48.8208 91.8312 51.5957 93.2439 55.0708 96.6356C57.189 98.7003 56.1908 100.024 53.6592 99.8873C55.3465 101.23 57.4295 101.61 59.5289 99.6304C60.0457 99.6304 60.9758 99.6304 60.9758 99.6304L59.9422 98.5628C60.2714 98.1836 60.7524 97.6668 61.2668 97.1859L61.2509 97.1682Z" fill="#E9E9E9"/>
<path d="M156.346 87.4349C167.223 84.2126 174.421 82.3237 174.421 82.3237L153.949 73.806C149.537 74.508 144.806 75.7215 139.952 77.2729C146.352 80.908 152.487 84.603 156.346 87.4349Z" fill="#C38A41"/>
<path d="M227.931 84.988C220.459 84.988 190.155 86.4713 190.114 86.4654C206.031 83.6846 218.662 82.8798 227.931 82.8798C234.699 82.8798 239.664 83.3148 242.753 83.704C242.753 83.704 226.448 99.0655 225.321 99.2524L238.305 85.3725C235.575 85.1568 232.105 84.988 227.931 84.988ZM36.4463 144.564C36.4463 144.564 121.999 102.557 184.479 97.7062C184.479 97.7062 104.605 117.704 75.8503 135.098C75.8503 135.098 143.299 109.895 183.058 108.473C183.058 108.473 153.596 115.575 144.721 121.608C144.721 121.608 186.318 112.849 202.821 129.479L247 82.2513C247 82.2513 174.421 65.5212 36.4463 144.564Z" fill="#E9E9E9"/>
<path d="M136.335 79.4005L152.301 89.4325C112.506 99.494 79.4043 115.981 79.4043 115.981L136.335 79.4005Z" fill="#C38A41"/>
</svg>
