<svg width="48" height="48" viewBox="0 0 48 48" fill="none" xmlns="http://www.w3.org/2000/svg">
<path d="M0 6C0 2.68629 2.68629 0 6 0H42C45.3137 0 48 2.68629 48 6V42C48 45.3137 45.3137 48 42 48H6C2.68629 48 0 45.3137 0 42V6Z" fill="black"/>
<rect x="10.487" y="10.2091" width="5.40517" height="2.13362" stroke="white" stroke-width="0.99569" stroke-linejoin="round"/>
<rect x="12.6917" y="12.8405" width="0.99569" height="1.28017" fill="white"/>
<rect x="21.2971" y="10.2091" width="5.40517" height="2.13362" stroke="white" stroke-width="0.99569" stroke-linejoin="round"/>
<rect x="23.5017" y="12.8405" width="0.99569" height="1.28017" fill="white"/>
<rect x="32.1076" y="10.2091" width="5.40517" height="2.13362" stroke="white" stroke-width="0.99569" stroke-linejoin="round"/>
<rect x="34.3123" y="12.8405" width="0.99569" height="1.28017" fill="white"/>
<rect x="7.99776" y="13.6228" width="32.0043" height="18.3491" stroke="white" stroke-width="0.99569" stroke-linejoin="round"/>
<rect x="14.8967" y="31.4741" width="0.99569" height="6.40086" fill="white"/>
<rect x="17.0303" y="31.4741" width="0.99569" height="6.40086" fill="white"/>
<rect x="29.9744" y="31.4741" width="0.99569" height="6.40086" fill="white"/>
<rect x="32.1074" y="31.4741" width="0.99569" height="6.40086" fill="white"/>
<rect x="10.0601" y="37.875" width="27.8793" height="0.99569" rx="0.497845" fill="white"/>
</svg>
